<svg xmlns="http://www.w3.org/2000/svg" width="40" height="40" x="0px" y="0px" viewBox="0 0 512 512">
    <path d="m493.996094.390625h-483.992188c-5.523437 0-10.003906 4.476563-10.003906 10.003906v409.394531c0 5.527344 4.480469 10.007813 10.003906 10.007813h483.992188c5.523437 0 10.003906-4.480469 10.003906-10.007813v-409.394531c0-5.527343-4.480469-10.003906-10.003906-10.003906zm-473.984375 20.007813h463.976562v41.503906h-463.976562zm463.976562 389.386718h-463.976562v-327.875h463.976562zm0 0"/>
    <path d="m45.429688 31.46875-.492188-.117188c-5.378906-1.257812-10.765625 2.074219-12.027344 7.453126-1.265625 5.378906 2.074219 10.765624 7.453125 12.027343l.492188.117188c.769531.179687 1.539062.265625 2.296875.265625 4.539062 0 8.648437-3.109375 9.730468-7.71875 1.261719-5.378906-2.074218-10.765625-7.453124-12.027344zm0 0"/>
    <path d="m70.917969 31.46875-.492188-.117188c-5.371093-1.261718-10.761719 2.070313-12.027343 7.449219-1.265626 5.378907 2.070312 10.765625 7.449218 12.03125l.492188.117188c.769531.179687 1.539062.265625 2.296875.265625 4.539062 0 8.648437-3.105469 9.734375-7.714844 1.261718-5.378906-2.074219-10.765625-7.453125-12.03125zm0 0"/>
    <path d="m96.40625 31.46875-.492188-.117188c-5.375-1.261718-10.765624 2.070313-12.027343 7.449219-1.265625 5.378907 2.070312 10.765625 7.449219 12.03125l.492187.117188c.769531.179687 1.539063.265625 2.296875.265625 4.539062 0 8.648438-3.105469 9.730469-7.714844 1.265625-5.378906-2.070313-10.765625-7.449219-12.03125zm0 0"/>
    <path d="m44.183594 195.484375.492187.113281c.769531.183594 1.539063.269532 2.296875.269532 4.539063 0 8.648438-3.109376 9.730469-7.71875 1.265625-5.378907-2.074219-10.765626-7.453125-12.027344l-.492188-.117188c-5.378906-1.261718-10.761718 2.070313-12.027343 7.453125-1.265625 5.378907 2.074219 10.761719 7.453125 12.027344zm0 0"/>
    <path d="m462.84375 31.085938h-74.339844c-5.527344 0-10.003906 4.480468-10.003906 10.007812 0 5.523438 4.476562 10.003906 10.003906 10.003906h74.339844c5.527344 0 10.003906-4.480468 10.003906-10.003906 0-5.527344-4.480468-10.007812-10.003906-10.007812zm0 0"/>
    <path d="m84.71875 305.878906c-4.242188 10.8125-7.4375 22.023438-9.503906 33.457032-1.027344 5.679687-1.777344 11.410156-2.25 17.164062-.230469 2.839844-.382813 5.683594-.492188 8.53125-.097656 2.613281-.433594 5.464844.070313 8.046875.898437 4.644531 5.09375 8.089844 9.820312 8.089844h337.011719c4.238281 0 8.117188-2.777344 9.476562-6.792969.839844-2.472656.53125-5.214844.464844-7.777344-.078125-2.972656-.230468-5.945312-.457031-8.910156-.867187-11.5625-2.859375-23.03125-5.953125-34.203125-1.753906-6.328125-3.867188-12.558594-6.3125-18.648437-13.070312-32.660157-35.695312-61.222657-65.730469-81.566407-.003906-.003906-.003906-.003906-.003906-.003906-24.4375-16.550781-52.289063-26.644531-81.453125-29.65625-21.363281-2.214844-43.144531-.578125-63.914062 4.898437-5.75 1.515626-11.410157 3.308594-16.980469 5.390626-.964844.359374-1.925781.722656-2.886719 1.097656-.234375.09375-.464844.191406-.699219.285156-8.570312 3.402344-16.890625 7.457031-24.867187 12.175781-26.21875 15.523438-48.1875 37.640625-63.527344 63.960938-4.53125 7.773437-8.425781 15.871093-11.710938 24.207031-.035156.085938-.066406.167969-.101562.253906zm109.882812-82.898437c21.667969-8.21875 45.035157-11.578125 68.140626-9.875 6.566406.484375 13.101562 1.398437 19.558593 2.695312 19.109375 3.859375 36.984375 11.171875 52.945313 21.25v21.921875c-25.835938-13.894531-54.671875-21.164062-84.378906-21.164062-26.265626 0-52.125 5.777344-75.703126 16.816406v-22.679688c6.238282-3.40625 12.730469-6.40625 19.4375-8.964843zm200.914063 83.386719c1.855469 4.148437 3.539063 8.375 5.035156 12.667968-11.953125-18.363281-27.28125-34.527344-45.292969-47.53125v-19.503906c17.027344 14.9375 30.847657 33.453125 40.257813 54.367188zm-106.179687 11.171874 13.542968-20.292968c3.070313-4.597656 1.832032-10.808594-2.765625-13.875-4.597656-3.070313-10.808593-1.828125-13.875 2.765625l-14.863281 22.269531c-6.460938-2.117188-13.347656-3.277344-20.507812-3.277344-33.007813 0-60.441407 24.347656-65.273438 56.027344h-83.355469c12.578125-34.019531 36.355469-62.585938 68.015625-81.332031 24.320313-14.398438 52.195313-22.007813 80.613282-22.007813 31.832031 0 62.527343 9.398438 88.773437 27.179688 27.507813 18.636718 48.410156 45.351562 59.851563 76.160156h-83.34375c-2.738282-17.910156-12.707032-33.46875-26.8125-43.617188zm-134.183594-72.621093v20.699219c-21.804688 13.855468-40.066406 31.960937-53.859375 53.113281 10.402343-29.585938 29.34375-55.179688 53.859375-73.8125zm50.789062 116.242187c4.578125-20.585937 22.984375-36.019531 44.925782-36.019531 21.941406 0 40.347656 15.433594 44.929687 36.019531zm0 0"/>
    <path d="m46.714844 156.84375c5.527344 0 10.007812-4.480469 10.007812-10.003906v-29.113282h21.863282c5.527343 0 10.007812-4.476562 10.007812-10.003906s-4.480469-10.003906-10.007812-10.003906h-31.871094c-5.523438 0-10.003906 4.476562-10.003906 10.003906v39.117188c0 5.523437 4.480468 10.003906 10.003906 10.003906zm0 0"/>
    <path d="m306.898438 125.476562h155.945312c5.527344 0 10.003906-4.480468 10.003906-10.007812 0-5.523438-4.476562-10.003906-10.003906-10.003906h-155.945312c-5.527344 0-10.003907 4.480468-10.003907 10.003906 0 5.527344 4.476563 10.007812 10.003907 10.007812zm0 0"/>
    <path d="m462.84375 142.335938h-74.339844c-5.527344 0-10.003906 4.480468-10.003906 10.003906 0 5.527344 4.476562 10.007812 10.003906 10.007812h74.339844c5.527344 0 10.003906-4.480468 10.003906-10.007812 0-5.523438-4.480468-10.003906-10.003906-10.003906zm0 0"/>
</svg>